<svg width="154" height="81" viewBox="0 0 154 81" fill="none" xmlns="http://www.w3.org/2000/svg">
<path d="M123.686 80.7C120.586 80.7 117.686 77.9 117.686 74.7V5.7C117.686 2.6 120.186 0 123.386 0C126.486 0 129.086 2.5 129.086 5.7V74.8C129.086 77.9 126.786 80.7 123.686 80.7Z" fill="#0F3DFF"/>
<path d="M75.2863 55.7C72.1863 55.7 69.5863 53.2 69.5863 50.1C69.5863 47 72.0863 44.4 75.1863 44.4L95.3863 44.3C98.4863 44.3 101.086 46.8 101.086 49.9C101.086 53 98.5863 55.6 95.4863 55.6L75.2863 55.7Z" fill="#0F3DFF"/>
<path d="M147.786 11.3H95.9863C92.8863 11.3 90.2863 8.8 90.2863 5.6C90.2863 2.4 92.8863 0 95.9863 0H147.786C150.886 0 153.486 2.5 153.486 5.7C153.486 8.9 150.986 11.3 147.786 11.3Z" fill="#0F3DFF"/>
<path d="M43.4863 3.8L52.9863 24.4C52.9863 24.4 54.3863 28.1 50.8863 30.7C50.8863 30.7 46.2863 34 42.6863 28.9L31.9863 6.3C31.9863 6.3 33.5863 1 37.3863 0.6C37.3863 0.6 41.4863 -0.2 43.4863 3.8Z" fill="#0F3DFF"/>
<path d="M80.3863 3.5L112.486 73.1C112.486 73.1 113.686 76.5 110.286 79.6C110.286 79.6 105.586 82.8 101.986 77.8L68.8863 6C68.8863 6 70.4863 0.7 74.2863 0.3C74.2863 0.3 78.3863 -0.5 80.3863 3.5Z" fill="#0F3DFF"/>
<path d="M44.4863 6.1C42.9863 1.2 39.7863 0.8 39.7863 0.8C34.8863 -0.3 33.0863 4 33.0863 4L0.586296 73.1C-1.6137 77.7 3.0863 79.9 3.0863 79.9C8.2863 82.6 11.1863 77.1 11.1863 77.1L44.4863 6.1Z" fill="#0F3DFF"/>
<path d="M81.3863 5.7C79.8863 0.8 76.6863 0.4 76.6863 0.4C71.8863 -0.7 69.9863 3.6 69.9863 3.6L49.3863 47.6C47.1863 52.2 51.5863 55 51.5863 55C56.7863 57.7 59.5863 52.8 59.5863 52.8L81.3863 5.7Z" fill="#0F3DFF"/>
</svg>
